# xmcd CD database file generated by Grip 3.2.0
# 
# Track frame offsets:
#       150
#       11940
#       21782
#       35015
#       48020
#       60705
#       73147
#       87610
#       96960
#       109790
#       119307
#       134560
# 
# Disc length: 1973 seconds
# 
# Revision: 2
# Processed by: cddbd v1.5.1PL0 Copyright (c) Steve Scherf et al.
# Submitted via: Grip 3.2.0
# 
DISCID=ac07b30c
DTITLE=Nat King Cole - Sampler
DYEAR=1993
DGENRE=Blues
TTITLE0=Love is a many splendored thing
TTITLE1=Moon love
TTITLE2=Tenderly
TTITLE3=Coquette
TTITLE4=Smile
TTITLE5=Ramblin'rose
TTITLE6=Stardust
TTITLE7=Tell me all about yourself
TTITLE8=Answer me my love
TTITLE9=When my sugar walks down
TTITLE10=Mona Lisa
TTITLE11=Just you just me
EXTD=
EXTT0=
EXTT1=
EXTT2=
EXTT3=
EXTT4=
EXTT5=
EXTT6=
EXTT7=
EXTT8=
EXTT9=
EXTT10=
EXTT11=
PLAYORDER=
